<svg xmlns="http://www.w3.org/2000/svg" width="1200" height="800" viewBox="0 0 1200 800">
    <defs><linearGradient id="g" x1="0" y1="0" x2="1" y2="1"><stop stop-color="#12151c"/><stop offset="1" stop-color="#08090c"/></linearGradient><radialGradient id="r" cx=".75" cy=".15" r=".9"><stop stop-color="#4b3920" stop-opacity=".6"/><stop offset="1" stop-color="#4b3920" stop-opacity="0"/></radialGradient></defs>
    <rect width="1200" height="800" fill="url(#g)"/><rect width="1200" height="800" fill="url(#r)"/>
    <text x="70" y="90" fill="#e0b766" font-family="Arial" font-size="24" font-weight="700" letter-spacing="6">BAITERMIN • FINAL TOUCH</text>
    <g transform="translate(330 220)"><rect x="0" y="0" width="150" height="300" rx="28" fill="#d9dbdf" stroke="#222831" stroke-width="10"/><rect x="240" y="40" width="150" height="380" rx="28" fill="#d9dbdf" stroke="#222831" stroke-width="10"/>
        <g fill="#1c2128"><rect x="36" y="30" width="78" height="16" rx="8"/><rect x="36" y="78" width="78" height="16" rx="8"/><rect x="36" y="126" width="78" height="16" rx="8"/><rect x="36" y="174" width="78" height="16" rx="8"/><rect x="36" y="222" width="78" height="16" rx="8"/></g><g fill="#1c2128"><rect x="276" y="30" width="78" height="16" rx="8"/><rect x="276" y="78" width="78" height="16" rx="8"/><rect x="276" y="126" width="78" height="16" rx="8"/><rect x="276" y="174" width="78" height="16" rx="8"/><rect x="276" y="222" width="78" height="16" rx="8"/><rect x="276" y="270" width="78" height="16" rx="8"/><rect x="276" y="318" width="78" height="16" rx="8"/></g></g>
    <text x="70" y="650" fill="#f5f5f2" font-family="Arial" font-size="72" font-weight="800">M PERFORMANCE PEDALS</text>
    <text x="70" y="710" fill="#9ea3ad" font-family="Arial" font-size="30" letter-spacing="5">INTERIØR • ALU FINISH</text>
  </svg>